<?plantuml 1.2026.2?><svg xmlns="http://www.w3.org/2000/svg" xmlns:xlink="http://www.w3.org/1999/xlink" contentStyleType="text/css" data-diagram-type="SEQUENCE" height="1372px" preserveAspectRatio="none" style="width:1312px;height:1372px;background:#FEFEFE;" version="1.1" viewBox="0 0 1312 1372" width="1312px" zoomAndPan="magnify"><title>Creaci&#243;n y Validaci&#243;n de Pago por Administrador</title><defs/><g><rect fill="#FEFEFE" height="1372" style="stroke:none;stroke-width:1;" width="1312" x="0" y="0"/><text fill="#000000" font-family="sans-serif" font-size="14" font-weight="bold" lengthAdjust="spacing" textLength="340.4227" x="481.9329" y="29.9659">Creaci&#243;n y Validaci&#243;n de Pago por Administrador</text><rect fill="none" height="51.412" style="stroke:#000000;stroke-width:1.5;" width="427.7259" x="10" y="236.2539"/><rect fill="none" height="51.412" style="stroke:#000000;stroke-width:1.5;" width="427.7259" x="10" y="301.6659"/><rect fill="none" height="100.0999" style="stroke:#000000;stroke-width:1.5;" width="439.8237" x="228.9344" y="398.784"/><rect fill="none" height="51.412" style="stroke:#000000;stroke-width:1.5;" width="427.7259" x="10" y="512.8839"/><rect fill="none" height="51.412" style="stroke:#000000;stroke-width:1.5;" width="427.7259" x="10" y="894.3561"/><rect fill="none" height="131.7878" style="stroke:#000000;stroke-width:1.5;" width="952.0246" x="218.9344" y="1009.1802"/><rect fill="none" height="83.118" style="stroke:#000000;stroke-width:1.5;" width="932.0246" x="228.9344" y="1050.85"/><g class="participant-lifeline" data-entity-uid="part1" data-qualified-name="Admin" id="part1-lifeline"><g><title>Admin</title><rect fill="#000000" fill-opacity="0.00000" height="1164.3623" width="8" x="40.4549" y="124.1358"/><line style="stroke:#181818;stroke-width:0.5;stroke-dasharray:5,5;" x1="44" x2="44" y1="124.1358" y2="1288.4981"/></g></g><g class="participant-lifeline" data-entity-uid="part2" data-qualified-name="PC" id="part2-lifeline"><g><title>.PaymentsController</title><rect fill="#000000" fill-opacity="0.00000" height="1164.3623" width="8" x="329.3301" y="124.1358"/><line style="stroke:#181818;stroke-width:0.5;stroke-dasharray:5,5;" x1="332.9344" x2="332.9344" y1="124.1358" y2="1288.4981"/></g></g><g class="participant-lifeline" data-entity-uid="part3" data-qualified-name="SM" id="part3-lifeline"><g><title>.Student .Model.</title><rect fill="#000000" fill-opacity="0.00000" height="1164.3623" width="8" x="573.4173" y="124.1358"/><line style="stroke:#181818;stroke-width:0.5;stroke-dasharray:5,5;" x1="577.0765" x2="577.0765" y1="124.1358" y2="1288.4981"/></g></g><g class="participant-lifeline" data-entity-uid="part4" data-qualified-name="UM" id="part4-lifeline"><g><title>.User .Model.</title><rect fill="#000000" fill-opacity="0.00000" height="1164.3623" width="8" x="735.606" y="124.1358"/><line style="stroke:#181818;stroke-width:0.5;stroke-dasharray:5,5;" x1="738.7581" x2="738.7581" y1="124.1358" y2="1288.4981"/></g></g><g class="participant-lifeline" data-entity-uid="part5" data-qualified-name="PM" id="part5-lifeline"><g><title>.Payment .Model.</title><rect fill="#000000" fill-opacity="0.00000" height="1164.3623" width="8" x="901.0706" y="124.1358"/><line style="stroke:#181818;stroke-width:0.5;stroke-dasharray:5,5;" x1="904.4538" x2="904.4538" y1="124.1358" y2="1288.4981"/></g></g><g class="participant-lifeline" data-entity-uid="part6" data-qualified-name="FS" id="part6-lifeline"><g><title>.FileSystem .fs.</title><rect fill="#000000" fill-opacity="0.00000" height="1164.3623" width="8" x="1071.3232" y="124.1358"/><line style="stroke:#181818;stroke-width:0.5;stroke-dasharray:5,5;" x1="1074.6873" x2="1074.6873" y1="124.1358" y2="1288.4981"/></g></g><g class="participant-lifeline" data-entity-uid="part7" data-qualified-name="AS" id="part7-lifeline"><g><title>.AuditService</title><rect fill="#000000" fill-opacity="0.00000" height="1164.3623" width="8" x="1226.6238" y="124.1358"/><line style="stroke:#181818;stroke-width:0.5;stroke-dasharray:5,5;" x1="1229.959" x2="1229.959" y1="124.1358" y2="1288.4981"/></g></g><g class="participant participant-head" data-entity-uid="part1" data-qualified-name="Admin" id="part1-head"><text fill="#000000" font-family="sans-serif" font-size="14" lengthAdjust="spacing" textLength="42.9098" x="20" y="120.0339">Admin</text><ellipse cx="44.4549" cy="53.5679" fill="#E2E2F0" rx="8" ry="8" style="stroke:#181818;stroke-width:0.5;"/><path d="M44.4549,61.5679 L44.4549,88.5679 M31.4549,69.5679 L57.4549,69.5679 M44.4549,88.5679 L31.4549,103.5679 M44.4549,88.5679 L57.4549,103.5679" fill="none" style="stroke:#181818;stroke-width:0.5;"/></g><g class="participant participant-tail" data-entity-uid="part1" data-qualified-name="Admin" id="part1-tail"><text fill="#000000" font-family="sans-serif" font-size="14" lengthAdjust="spacing" textLength="42.9098" x="20" y="1302.464">Admin</text><ellipse cx="44.4549" cy="1315.066" fill="#E2E2F0" rx="8" ry="8" style="stroke:#181818;stroke-width:0.5;"/><path d="M44.4549,1323.066 L44.4549,1350.066 M31.4549,1331.066 L57.4549,1331.066 M44.4549,1350.066 L31.4549,1365.066 M44.4549,1350.066 L57.4549,1365.066" fill="none" style="stroke:#181818;stroke-width:0.5;"/></g><g class="participant participant-head" data-entity-uid="part2" data-qualified-name="PC" id="part2-head"><rect fill="#E2E2F0" height="33.0679" rx="2.5" ry="2.5" style="stroke:#181818;stroke-width:0.5;" width="148.7915" x="258.9344" y="90.0679"/><text fill="#000000" font-family="sans-serif" font-size="14" lengthAdjust="spacing" textLength="134.7915" x="265.9344" y="112.0339">:PaymentsController</text></g><g class="participant participant-tail" data-entity-uid="part2" data-qualified-name="PC" id="part2-tail"><rect fill="#E2E2F0" height="33.0679" rx="2.5" ry="2.5" style="stroke:#181818;stroke-width:0.5;" width="148.7915" x="258.9344" y="1287.4981"/><text fill="#000000" font-family="sans-serif" font-size="14" lengthAdjust="spacing" textLength="134.7915" x="265.9344" y="1309.464">:PaymentsController</text></g><g class="participant participant-head" data-entity-uid="part3" data-qualified-name="SM" id="part3-head"><rect fill="#E2E2F0" height="33.0679" rx="2.5" ry="2.5" style="stroke:#181818;stroke-width:0.5;" width="122.6816" x="516.0765" y="90.0679"/><text fill="#000000" font-family="sans-serif" font-size="14" lengthAdjust="spacing" textLength="108.6816" x="523.0765" y="112.0339">:Student (Model)</text></g><g class="participant participant-tail" data-entity-uid="part3" data-qualified-name="SM" id="part3-tail"><rect fill="#E2E2F0" height="33.0679" rx="2.5" ry="2.5" style="stroke:#181818;stroke-width:0.5;" width="122.6816" x="516.0765" y="1287.4981"/><text fill="#000000" font-family="sans-serif" font-size="14" lengthAdjust="spacing" textLength="108.6816" x="523.0765" y="1309.464">:Student (Model)</text></g><g class="participant participant-head" data-entity-uid="part4" data-qualified-name="UM" id="part4-head"><rect fill="#E2E2F0" height="33.0679" rx="2.5" ry="2.5" style="stroke:#181818;stroke-width:0.5;" width="101.6957" x="688.7581" y="90.0679"/><text fill="#000000" font-family="sans-serif" font-size="14" lengthAdjust="spacing" textLength="87.6957" x="695.7581" y="112.0339">:User (Model)</text></g><g class="participant participant-tail" data-entity-uid="part4" data-qualified-name="UM" id="part4-tail"><rect fill="#E2E2F0" height="33.0679" rx="2.5" ry="2.5" style="stroke:#181818;stroke-width:0.5;" width="101.6957" x="688.7581" y="1287.4981"/><text fill="#000000" font-family="sans-serif" font-size="14" lengthAdjust="spacing" textLength="87.6957" x="695.7581" y="1309.464">:User (Model)</text></g><g class="participant participant-head" data-entity-uid="part5" data-qualified-name="PM" id="part5-head"><rect fill="#E2E2F0" height="33.0679" rx="2.5" ry="2.5" style="stroke:#181818;stroke-width:0.5;" width="129.2336" x="840.4538" y="90.0679"/><text fill="#000000" font-family="sans-serif" font-size="14" lengthAdjust="spacing" textLength="115.2336" x="847.4538" y="112.0339">:Payment (Model)</text></g><g class="participant participant-tail" data-entity-uid="part5" data-qualified-name="PM" id="part5-tail"><rect fill="#E2E2F0" height="33.0679" rx="2.5" ry="2.5" style="stroke:#181818;stroke-width:0.5;" width="129.2336" x="840.4538" y="1287.4981"/><text fill="#000000" font-family="sans-serif" font-size="14" lengthAdjust="spacing" textLength="115.2336" x="847.4538" y="1309.464">:Payment (Model)</text></g><g class="participant participant-head" data-entity-uid="part6" data-qualified-name="FS" id="part6-head"><rect fill="#E2E2F0" height="33.0679" rx="2.5" ry="2.5" style="stroke:#181818;stroke-width:0.5;" width="111.2716" x="1019.6873" y="90.0679"/><text fill="#000000" font-family="sans-serif" font-size="14" lengthAdjust="spacing" textLength="97.2716" x="1026.6873" y="112.0339">:FileSystem (fs)</text></g><g class="participant participant-tail" data-entity-uid="part6" data-qualified-name="FS" id="part6-tail"><rect fill="#E2E2F0" height="33.0679" rx="2.5" ry="2.5" style="stroke:#181818;stroke-width:0.5;" width="111.2716" x="1019.6873" y="1287.4981"/><text fill="#000000" font-family="sans-serif" font-size="14" lengthAdjust="spacing" textLength="97.2716" x="1026.6873" y="1309.464">:FileSystem (fs)</text></g><g class="participant participant-head" data-entity-uid="part7" data-qualified-name="AS" id="part7-head"><rect fill="#E2E2F0" height="33.0679" rx="2.5" ry="2.5" style="stroke:#181818;stroke-width:0.5;" width="99.3297" x="1180.959" y="90.0679"/><text fill="#000000" font-family="sans-serif" font-size="14" lengthAdjust="spacing" textLength="85.3297" x="1187.959" y="112.0339">:AuditService</text></g><g class="participant participant-tail" data-entity-uid="part7" data-qualified-name="AS" id="part7-tail"><rect fill="#E2E2F0" height="33.0679" rx="2.5" ry="2.5" style="stroke:#181818;stroke-width:0.5;" width="99.3297" x="1180.959" y="1287.4981"/><text fill="#000000" font-family="sans-serif" font-size="14" lengthAdjust="spacing" textLength="85.3297" x="1187.959" y="1309.464">:AuditService</text></g><rect fill="#EEEEEE" height="3" style="stroke:#EEEEEE;stroke-width:1;" width="1305.2886" x="0" y="155.9888"/><line style="stroke:#000000;stroke-width:1;" x1="0" x2="1305.2886" y1="155.9888" y2="155.9888"/><line style="stroke:#000000;stroke-width:1;" x1="0" x2="1305.2886" y1="158.9888" y2="158.9888"/><rect fill="#EEEEEE" height="25.706" style="stroke:#000000;stroke-width:2;" width="141.8031" x="581.7428" y="144.1358"/><text fill="#000000" font-family="sans-serif" font-size="13" font-weight="bold" lengthAdjust="spacing" textLength="124.4231" x="587.7428" y="162.0328">Subir comprobante</text><g class="message" data-entity-1="part1" data-entity-2="part2" id="msg1"><polygon fill="#181818" points="321.3301,217.2539,331.3301,221.2539,321.3301,225.2539,325.3301,221.2539" style="stroke:#181818;stroke-width:1;"/><line style="stroke:#181818;stroke-width:1;" x1="44.4549" x2="327.3301" y1="221.2539" y2="221.2539"/><text fill="#000000" font-family="sans-serif" font-size="13" lengthAdjust="spacing" textLength="171.8082" x="51.4549" y="197.7389">POST /api/payments/upload</text><text fill="#000000" font-family="sans-serif" font-size="13" lengthAdjust="spacing" textLength="169.9232" x="51.4549" y="215.4449">{ studentId, amount } + files</text></g><path d="M10,236.2539 L72.303,236.2539 L72.303,245.9599 L62.303,255.9599 L10,255.9599 L10,236.2539" fill="#EEEEEE" style="stroke:#000000;stroke-width:1.5;"/><rect fill="none" height="51.412" style="stroke:#000000;stroke-width:1.5;" width="427.7259" x="10" y="236.2539"/><text fill="#000000" font-family="sans-serif" font-size="13" font-weight="bold" lengthAdjust="spacing" textLength="17.303" x="25" y="251.1509">alt</text><text fill="#000000" font-family="sans-serif" font-size="11" font-weight="bold" lengthAdjust="spacing" textLength="92.3443" x="87.303" y="250.0128">[No autenticado]</text><g class="message" data-entity-1="part2" data-entity-2="part1" id="msg2"><polygon fill="#181818" points="55.4549,275.6659,45.4549,279.6659,55.4549,283.6659,51.4549,279.6659" style="stroke:#181818;stroke-width:1;"/><line style="stroke:#181818;stroke-width:1;stroke-dasharray:2,2;" x1="49.4549" x2="332.3301" y1="279.6659" y2="279.6659"/><text fill="#000000" font-family="sans-serif" font-size="13" lengthAdjust="spacing" textLength="130.2471" x="61.4549" y="273.8569">401 "No autenticado"</text></g><path d="M10,301.6659 L72.303,301.6659 L72.303,311.3719 L62.303,321.3719 L10,321.3719 L10,301.6659" fill="#EEEEEE" style="stroke:#000000;stroke-width:1.5;"/><rect fill="none" height="51.412" style="stroke:#000000;stroke-width:1.5;" width="427.7259" x="10" y="301.6659"/><text fill="#000000" font-family="sans-serif" font-size="13" font-weight="bold" lengthAdjust="spacing" textLength="17.303" x="25" y="316.5629">alt</text><text fill="#000000" font-family="sans-serif" font-size="11" font-weight="bold" lengthAdjust="spacing" textLength="72.9405" x="87.303" y="315.4248">[Sin archivos]</text><g class="message" data-entity-1="part2" data-entity-2="part1" id="msg3"><polygon fill="#181818" points="55.4549,341.0779,45.4549,345.0779,55.4549,349.0779,51.4549,345.0779" style="stroke:#181818;stroke-width:1;"/><line style="stroke:#181818;stroke-width:1;stroke-dasharray:2,2;" x1="49.4549" x2="332.3301" y1="345.0779" y2="345.0779"/><text fill="#000000" font-family="sans-serif" font-size="13" lengthAdjust="spacing" textLength="146.0941" x="61.4549" y="339.2689">400 "Archivo requerido"</text></g><g class="message" data-entity-1="part2" data-entity-2="part4" id="msg4"><polygon fill="#181818" points="727.606,379.784,737.606,383.784,727.606,387.784,731.606,383.784" style="stroke:#181818;stroke-width:1;"/><line style="stroke:#181818;stroke-width:1;" x1="333.3301" x2="733.606" y1="383.784" y2="383.784"/><text fill="#000000" font-family="sans-serif" font-size="13" lengthAdjust="spacing" textLength="133.6271" x="340.3301" y="377.975">findByPk(requesterId)</text></g><path d="M228.9344,398.784 L291.2374,398.784 L291.2374,408.49 L281.2374,418.49 L228.9344,418.49 L228.9344,398.784" fill="#EEEEEE" style="stroke:#000000;stroke-width:1.5;"/><rect fill="none" height="100.0999" style="stroke:#000000;stroke-width:1.5;" width="439.8237" x="228.9344" y="398.784"/><text fill="#000000" font-family="sans-serif" font-size="13" font-weight="bold" lengthAdjust="spacing" textLength="17.303" x="243.9344" y="413.681">alt</text><text fill="#000000" font-family="sans-serif" font-size="11" font-weight="bold" lengthAdjust="spacing" textLength="131.5481" x="306.2374" y="412.5429">[Requester es STUDENT]</text><g class="message" data-entity-1="part2" data-entity-2="part3" id="msg5"><polygon fill="#181818" points="565.4173,438.196,575.4173,442.196,565.4173,446.196,569.4173,442.196" style="stroke:#181818;stroke-width:1;"/><line style="stroke:#181818;stroke-width:1;" x1="333.3301" x2="571.4173" y1="442.196" y2="442.196"/><text fill="#000000" font-family="sans-serif" font-size="13" lengthAdjust="spacing" textLength="192.1272" x="340.3301" y="436.387">findOne({ userId: requesterId })</text></g><line style="stroke:#000000;stroke-width:1;stroke-dasharray:2,2;" x1="228.9344" x2="668.7581" y1="451.196" y2="451.196"/><text fill="#000000" font-family="sans-serif" font-size="11" font-weight="bold" lengthAdjust="spacing" textLength="200.1216" x="233.9344" y="462.9549">[Requester es ADMIN con studentId]</text><g class="message" data-entity-1="part2" data-entity-2="part3" id="msg6"><polygon fill="#181818" points="565.4173,486.8839,575.4173,490.8839,565.4173,494.8839,569.4173,490.8839" style="stroke:#181818;stroke-width:1;"/><line style="stroke:#181818;stroke-width:1;" x1="333.3301" x2="571.4173" y1="490.8839" y2="490.8839"/><text fill="#000000" font-family="sans-serif" font-size="13" lengthAdjust="spacing" textLength="120.9521" x="340.3301" y="485.0749">findByPk(studentId)</text></g><path d="M10,512.8839 L72.303,512.8839 L72.303,522.5899 L62.303,532.5899 L10,532.5899 L10,512.8839" fill="#EEEEEE" style="stroke:#000000;stroke-width:1.5;"/><rect fill="none" height="51.412" style="stroke:#000000;stroke-width:1.5;" width="427.7259" x="10" y="512.8839"/><text fill="#000000" font-family="sans-serif" font-size="13" font-weight="bold" lengthAdjust="spacing" textLength="17.303" x="25" y="527.7809">alt</text><text fill="#000000" font-family="sans-serif" font-size="11" font-weight="bold" lengthAdjust="spacing" textLength="149.478" x="87.303" y="526.6428">[Estudiante no encontrado]</text><g class="message" data-entity-1="part2" data-entity-2="part1" id="msg7"><polygon fill="#181818" points="55.4549,552.2959,45.4549,556.2959,55.4549,560.2959,51.4549,556.2959" style="stroke:#181818;stroke-width:1;"/><line style="stroke:#181818;stroke-width:1;stroke-dasharray:2,2;" x1="49.4549" x2="332.3301" y1="556.2959" y2="556.2959"/><text fill="#000000" font-family="sans-serif" font-size="13" lengthAdjust="spacing" textLength="194.5582" x="61.4549" y="550.4869">404 "Estudiante no encontrado"</text></g><g class="message" data-entity-1="part2" data-entity-2="part2" id="msg8"><line style="stroke:#181818;stroke-width:1;" x1="333.3301" x2="375.3301" y1="595.002" y2="595.002"/><line style="stroke:#181818;stroke-width:1;" x1="375.3301" x2="375.3301" y1="595.002" y2="608.002"/><line style="stroke:#181818;stroke-width:1;" x1="334.3301" x2="375.3301" y1="608.002" y2="608.002"/><polygon fill="#181818" points="344.3301,604.002,334.3301,608.002,344.3301,612.002,340.3301,608.002" style="stroke:#181818;stroke-width:1;"/><text fill="#000000" font-family="sans-serif" font-size="13" lengthAdjust="spacing" textLength="230.0872" x="340.3301" y="589.1929">mealsIncluded = floor(amount / 2000)</text></g><g class="message" data-entity-1="part2" data-entity-2="part5" id="msg9"><polygon fill="#181818" points="893.0706,671.12,903.0706,675.12,893.0706,679.12,897.0706,675.12" style="stroke:#181818;stroke-width:1;"/><line style="stroke:#181818;stroke-width:1;" x1="333.3301" x2="899.0706" y1="675.12" y2="675.12"/><text fill="#000000" font-family="sans-serif" font-size="13" lengthAdjust="spacing" textLength="264.9272" x="340.3301" y="633.899">create({ studentId, amount, mealsIncluded,</text><text fill="#000000" font-family="sans-serif" font-size="13" lengthAdjust="spacing" textLength="220.1032" x="340.3301" y="651.605">mealsUsed: 0, comprobantePath, ...,</text><text fill="#000000" font-family="sans-serif" font-size="13" lengthAdjust="spacing" textLength="104.3511" x="340.3301" y="669.311">isVerified: false })</text></g><g class="message" data-entity-1="part5" data-entity-2="part2" id="msg10"><polygon fill="#181818" points="344.3301,702.826,334.3301,706.826,344.3301,710.826,340.3301,706.826" style="stroke:#181818;stroke-width:1;"/><line style="stroke:#181818;stroke-width:1;stroke-dasharray:2,2;" x1="338.3301" x2="904.0706" y1="706.826" y2="706.826"/><text fill="#000000" font-family="sans-serif" font-size="13" lengthAdjust="spacing" textLength="54.132" x="350.3301" y="701.017">payment</text></g><g class="message" data-entity-1="part2" data-entity-2="part7" id="msg11"><polygon fill="#181818" points="1218.6238,734.532,1228.6238,738.532,1218.6238,742.532,1222.6238,738.532" style="stroke:#181818;stroke-width:1;"/><line style="stroke:#181818;stroke-width:1;" x1="333.3301" x2="1224.6238" y1="738.532" y2="738.532"/><text fill="#000000" font-family="sans-serif" font-size="13" lengthAdjust="spacing" textLength="320.8273" x="340.3301" y="732.723">logAction(id, email, 'UPLOAD_PAYMENT_RECEIPT', ...)</text></g><g class="message" data-entity-1="part2" data-entity-2="part1" id="msg12"><polygon fill="#181818" points="55.4549,766.2381,45.4549,770.2381,55.4549,774.2381,51.4549,770.2381" style="stroke:#181818;stroke-width:1;"/><line style="stroke:#181818;stroke-width:1;stroke-dasharray:2,2;" x1="49.4549" x2="332.3301" y1="770.2381" y2="770.2381"/><text fill="#000000" font-family="sans-serif" font-size="13" lengthAdjust="spacing" textLength="157.8851" x="61.4549" y="764.429">201 { message, payment }</text></g><rect fill="#EEEEEE" height="3" style="stroke:#EEEEEE;stroke-width:1;" width="1305.2886" x="0" y="800.0911"/><line style="stroke:#000000;stroke-width:1;" x1="0" x2="1305.2886" y1="800.0911" y2="800.0911"/><line style="stroke:#000000;stroke-width:1;" x1="0" x2="1305.2886" y1="803.0911" y2="803.0911"/><rect fill="#EEEEEE" height="25.706" style="stroke:#000000;stroke-width:2;" width="108.2371" x="598.5258" y="788.2381"/><text fill="#000000" font-family="sans-serif" font-size="13" font-weight="bold" lengthAdjust="spacing" textLength="90.8571" x="604.5258" y="806.1351">Verificar pago</text><g class="message" data-entity-1="part1" data-entity-2="part2" id="msg13"><polygon fill="#181818" points="321.3301,843.6501,331.3301,847.6501,321.3301,851.6501,325.3301,847.6501" style="stroke:#181818;stroke-width:1;"/><line style="stroke:#181818;stroke-width:1;" x1="44.4549" x2="327.3301" y1="847.6501" y2="847.6501"/><text fill="#000000" font-family="sans-serif" font-size="13" lengthAdjust="spacing" textLength="174.9151" x="51.4549" y="841.8411">PUT /api/payments/:id/verify</text></g><g class="message" data-entity-1="part2" data-entity-2="part5" id="msg14"><polygon fill="#181818" points="893.0706,875.3561,903.0706,879.3561,893.0706,883.3561,897.0706,879.3561" style="stroke:#181818;stroke-width:1;"/><line style="stroke:#181818;stroke-width:1;" x1="333.3301" x2="899.0706" y1="879.3561" y2="879.3561"/><text fill="#000000" font-family="sans-serif" font-size="13" lengthAdjust="spacing" textLength="72.8911" x="340.3301" y="873.5471">findByPk(id)</text></g><path d="M10,894.3561 L72.303,894.3561 L72.303,904.0621 L62.303,914.0621 L10,914.0621 L10,894.3561" fill="#EEEEEE" style="stroke:#000000;stroke-width:1.5;"/><rect fill="none" height="51.412" style="stroke:#000000;stroke-width:1.5;" width="427.7259" x="10" y="894.3561"/><text fill="#000000" font-family="sans-serif" font-size="13" font-weight="bold" lengthAdjust="spacing" textLength="17.303" x="25" y="909.2531">alt</text><text fill="#000000" font-family="sans-serif" font-size="11" font-weight="bold" lengthAdjust="spacing" textLength="117.7982" x="87.303" y="908.115">[Pago no encontrado]</text><g class="message" data-entity-1="part2" data-entity-2="part1" id="msg15"><polygon fill="#181818" points="55.4549,933.7681,45.4549,937.7681,55.4549,941.7681,51.4549,937.7681" style="stroke:#181818;stroke-width:1;"/><line style="stroke:#181818;stroke-width:1;stroke-dasharray:2,2;" x1="49.4549" x2="332.3301" y1="937.7681" y2="937.7681"/><text fill="#000000" font-family="sans-serif" font-size="13" lengthAdjust="spacing" textLength="160.6931" x="61.4549" y="931.9591">404 "Pago no encontrado"</text></g><g class="message" data-entity-1="part2" data-entity-2="part5" id="msg16"><polygon fill="#181818" points="893.0706,990.1802,903.0706,994.1802,893.0706,998.1802,897.0706,994.1802" style="stroke:#181818;stroke-width:1;"/><line style="stroke:#181818;stroke-width:1;" x1="333.3301" x2="899.0706" y1="994.1802" y2="994.1802"/><text fill="#000000" font-family="sans-serif" font-size="13" lengthAdjust="spacing" textLength="147.9271" x="340.3301" y="970.6651">update({ isVerified: true,</text><text fill="#000000" font-family="sans-serif" font-size="13" lengthAdjust="spacing" textLength="229.8662" x="347.0901" y="988.3712">verifiedBy: adminId, verifiedAt: now })</text></g><path d="M218.9344,1009.1802 L292.2744,1009.1802 L292.2744,1018.8862 L282.2744,1028.8862 L218.9344,1028.8862 L218.9344,1009.1802" fill="#EEEEEE" style="stroke:#000000;stroke-width:1.5;"/><rect fill="none" height="131.7878" style="stroke:#000000;stroke-width:1.5;" width="952.0246" x="218.9344" y="1009.1802"/><text fill="#000000" font-family="sans-serif" font-size="13" font-weight="bold" lengthAdjust="spacing" textLength="28.34" x="233.9344" y="1024.0772">loop</text><text fill="#000000" font-family="sans-serif" font-size="11" font-weight="bold" lengthAdjust="spacing" textLength="79.2544" x="307.2744" y="1022.9391">[Por cada path</text><text fill="#000000" font-family="sans-serif" font-size="11" font-weight="bold" lengthAdjust="spacing" textLength="179.8707" x="307.2744" y="1037.921">(comprobante, university, bank)]</text><path d="M228.9344,1050.85 L291.2374,1050.85 L291.2374,1060.556 L281.2374,1070.556 L228.9344,1070.556 L228.9344,1050.85" fill="#EEEEEE" style="stroke:#000000;stroke-width:1.5;"/><rect fill="none" height="83.118" style="stroke:#000000;stroke-width:1.5;" width="932.0246" x="228.9344" y="1050.85"/><text fill="#000000" font-family="sans-serif" font-size="13" font-weight="bold" lengthAdjust="spacing" textLength="17.303" x="243.9344" y="1065.747">alt</text><text fill="#000000" font-family="sans-serif" font-size="11" font-weight="bold" lengthAdjust="spacing" textLength="81.0804" x="306.2374" y="1064.6089">[Path no vac&#237;o]</text><g class="message" data-entity-1="part2" data-entity-2="part6" id="msg17"><polygon fill="#181818" points="1063.3232,1090.262,1073.3232,1094.262,1063.3232,1098.262,1067.3232,1094.262" style="stroke:#181818;stroke-width:1;"/><line style="stroke:#181818;stroke-width:1;" x1="333.3301" x2="1069.3232" y1="1094.262" y2="1094.262"/><text fill="#000000" font-family="sans-serif" font-size="13" lengthAdjust="spacing" textLength="73.5671" x="340.3301" y="1088.453">unlink(path)</text></g><g class="message" data-entity-1="part6" data-entity-2="part2" id="msg18"><polygon fill="#181818" points="344.3301,1121.968,334.3301,1125.968,344.3301,1129.968,340.3301,1125.968" style="stroke:#181818;stroke-width:1;"/><line style="stroke:#181818;stroke-width:1;stroke-dasharray:2,2;" x1="338.3301" x2="1074.3232" y1="1125.968" y2="1125.968"/><text fill="#000000" font-family="sans-serif" font-size="13" lengthAdjust="spacing" textLength="140.1791" x="350.3301" y="1120.159">ok o ENOENT ignorado</text></g><g class="message" data-entity-1="part2" data-entity-2="part5" id="msg19"><polygon fill="#181818" points="893.0706,1203.0861,903.0706,1207.0861,893.0706,1211.0861,897.0706,1207.0861" style="stroke:#181818;stroke-width:1;"/><line style="stroke:#181818;stroke-width:1;" x1="333.3301" x2="899.0706" y1="1207.0861" y2="1207.0861"/><text fill="#000000" font-family="sans-serif" font-size="13" lengthAdjust="spacing" textLength="182.4812" x="340.3301" y="1165.865">update({ comprobantePath: '',</text><text fill="#000000" font-family="sans-serif" font-size="13" lengthAdjust="spacing" textLength="148.7462" x="347.0901" y="1183.571">universityReceiptPath: '',</text><text fill="#000000" font-family="sans-serif" font-size="13" lengthAdjust="spacing" textLength="128.1151" x="347.0901" y="1201.2771">bankReceiptPath: '' })</text></g><g class="message" data-entity-1="part2" data-entity-2="part7" id="msg20"><polygon fill="#181818" points="1218.6238,1234.7921,1228.6238,1238.7921,1218.6238,1242.7921,1222.6238,1238.7921" style="stroke:#181818;stroke-width:1;"/><line style="stroke:#181818;stroke-width:1;" x1="333.3301" x2="1224.6238" y1="1238.7921" y2="1238.7921"/><text fill="#000000" font-family="sans-serif" font-size="13" lengthAdjust="spacing" textLength="254.2933" x="340.3301" y="1232.9831">logAction(id, email, 'VERIFY_PAYMENT', ...)</text></g><g class="message" data-entity-1="part2" data-entity-2="part1" id="msg21"><polygon fill="#181818" points="55.4549,1266.4981,45.4549,1270.4981,55.4549,1274.4981,51.4549,1270.4981" style="stroke:#181818;stroke-width:1;"/><line style="stroke:#181818;stroke-width:1;stroke-dasharray:2,2;" x1="49.4549" x2="332.3301" y1="1270.4981" y2="1270.4981"/><text fill="#000000" font-family="sans-serif" font-size="13" lengthAdjust="spacing" textLength="264.8752" x="61.4549" y="1264.6891">200 { message: 'Pago verificado', payment }</text></g><?plantuml-src ZLJTRjem6BtFKtnY5u2M5ZhrAXALKWeIqg0HWKgLAbLkRC0YiJFROKDL7sbNUuI-s3ux408jsk0gdy_tTywnzPgBd2YIGIQ5J5PAPWmM9DNCqzNH2qdMIoKBGViobGg-30VsNqD4H1cUy9m84n5AkLZ2jsxj_5R-siUlkfvdk4aPz1KZ2N__8s0B3oJbTFT56TPRIiYnLKWpBhWsYb2fF8yaPX_qyaDFQ0GHsMPC6DsNmYYPfamrW6Y8-YUus1GKST0QIyhIjWF5unFGN3DrX9YFFszt18fEGKEUidYh3SkWjT0bQ1YVWCA2SXCpjU49SuWmzhnU3-BYXIj8P9Oh-O9G1hsUvxdLuU865miWkezdq24vx-IxxJj5daf2dyGhw7BH4VM1PAYTWJVu2WiSIIEFgO69158OXF04oVK0Vr4VBh2sQnB0TVSA6iUeXiS4BTDZd8EePCKtKd-Qt8L6M9w3OZyAfdYLRw4tI6g0ymXwkutMBGT1gjI8jii6qtq464eqczyD9hEgqGsALcRV2zPwXKBRp01gPU2jxJ4qyd6Xy6uycY2jua3G9qNTI1MWVTXwO8FSoI4aC95OkvsZxneQv_17H5WjCuQNRYII57jIwC4YbLArTifry3Prk-qAZrCcU7cCtVo3plvnBVz9k6_qDFBJzUkMYeXP-N1vUOaWhXzGeWMtAFS0MFwYiTl83hYps7w6C0uWbSimCLoA5iVkB2CyzQ4vZxxVXtVFKVWuHiMUfuF-O1JDcgxFReK3IT_GOwyuiDPaoVnz4tXpLw0SA24Au_WUVFJ__DJ-0QUTZStQrhcg5ELxRxdtvRy4_8WybWxB5pajfQXJQ5J1a5M0pIvqkms0sC9MgNqmD04M_scfzb3m729ytl2Y4TpOh9v4goQM3uNWcAYvsVhu9ejrsmrTxcDMTieDITv_bxiSJ3r4gGgHSh5ksQhjwdWOL-hADKWOJEvHCU1B8IjAxAxdzZrnKW3DfblvCEUK9OpdvkZKJduIT_l_orSFW-be-BZtrLa_TGz-mj9ElitEHrGswnRx2m00?></g></svg>