<?plantuml 1.2026.2?><svg xmlns="http://www.w3.org/2000/svg" xmlns:xlink="http://www.w3.org/1999/xlink" contentStyleType="text/css" data-diagram-type="DESCRIPTION" height="2407px" preserveAspectRatio="none" style="width:1446px;height:2407px;background:#FFFFFF;" version="1.1" viewBox="0 0 1446 2407" width="1446px" zoomAndPan="magnify"><title>Diagrama de Casos de Uso - SmartComedor</title><defs/><g><g class="title" data-source-line="1"><text fill="#000000" font-family="sans-serif" font-size="14" font-weight="bold" lengthAdjust="spacing" textLength="343.9229" x="544.2086" y="22.9951">Diagrama de Casos de Uso - SmartComedor</text></g><!--cluster Sistema SmartComedor--><g class="cluster" data-qualified-name="Sistema SmartComedor" data-source-line="11" id="ent0005"><rect fill="none" height="1911" rx="2.5" ry="2.5" style="stroke:#181818;stroke-width:1;" width="1288.26" x="152.08" y="190.8269"/><text fill="#000000" font-family="sans-serif" font-size="14" font-weight="bold" lengthAdjust="spacing" textLength="186.5459" x="702.9371" y="205.822">Sistema SmartComedor</text></g><!--cluster Autenticaci??n--><g class="cluster" data-qualified-name="Sistema SmartComedor.Autenticaci..n" data-source-line="16" id="ent0006"><rect fill="none" height="293" rx="2.5" ry="2.5" style="stroke:#181818;stroke-width:1;" width="226.33" x="196.61" y="812.8269"/><text fill="#000000" font-family="sans-serif" font-size="14" font-weight="bold" lengthAdjust="spacing" textLength="116.2246" x="251.6627" y="827.822">Autenticaci&#195;&#179;n</text></g><!--cluster Funcionalidades Estudiante--><g class="cluster" data-qualified-name="Sistema SmartComedor.Funcionalidades Estudiante" data-source-line="26" id="ent0011"><rect fill="none" height="555" rx="2.5" ry="2.5" style="stroke:#181818;stroke-width:1;" width="591.58" x="176.08" y="233.8269"/><text fill="#000000" font-family="sans-serif" font-size="14" font-weight="bold" lengthAdjust="spacing" textLength="218.3945" x="362.6727" y="248.822">Funcionalidades Estudiante</text></g><!--cluster Funcionalidades Administrador--><g class="cluster" data-qualified-name="Sistema SmartComedor.Funcionalidades Administrador" data-source-line="40" id="ent0020"><rect fill="none" height="604" rx="2.5" ry="2.5" style="stroke:#181818;stroke-width:1;" width="1222.39" x="193.95" y="1129.8269"/><text fill="#000000" font-family="sans-serif" font-size="14" font-weight="bold" lengthAdjust="spacing" textLength="246.3467" x="681.9717" y="1144.822">Funcionalidades Administrador</text></g><!--cluster Funcionalidades Supervisor--><g class="cluster" data-qualified-name="Sistema SmartComedor.Funcionalidades Supervisor" data-source-line="62" id="ent0037"><rect fill="none" height="320" rx="2.5" ry="2.5" style="stroke:#181818;stroke-width:1;" width="239.11" x="190.22" y="1757.8269"/><text fill="#000000" font-family="sans-serif" font-size="14" font-weight="bold" lengthAdjust="spacing" textLength="218.668" x="200.441" y="1772.822">Funcionalidades Supervisor</text></g><!--entity UC1--><g class="entity" data-qualified-name="Sistema SmartComedor.Autenticaci..n.UC1" data-source-line="17" id="ent0007"><ellipse cx="309.7813" cy="1073.8271" fill="#F1F1F1" rx="67.5013" ry="15.9003" style="stroke:#181818;stroke-width:0.5;"/><text fill="#000000" font-family="sans-serif" font-size="14" lengthAdjust="spacing" textLength="100.0098" x="259.7764" y="1078.4756">Iniciar Sesi&#195;&#179;n</text></g><!--entity UC2--><g class="entity" data-qualified-name="Sistema SmartComedor.Autenticaci..n.UC2" data-source-line="18" id="ent0008"><ellipse cx="309.7826" cy="937.8294" fill="#F1F1F1" rx="97.1626" ry="21.8325" style="stroke:#181818;stroke-width:0.5;"/><text fill="#000000" font-family="sans-serif" font-size="14" lengthAdjust="spacing" textLength="169.7842" x="224.8905" y="942.4778">Recuperar Contrase&#195;&#177;a</text></g><!--entity UC3--><g class="entity" data-qualified-name="Sistema SmartComedor.Autenticaci..n.UC3" data-source-line="19" id="ent0009"><ellipse cx="309.7754" cy="1008.8305" fill="#F1F1F1" rx="48.1954" ry="14.5236" style="stroke:#181818;stroke-width:0.5;"/><text fill="#000000" font-family="sans-serif" font-size="14" lengthAdjust="spacing" textLength="63.916" x="277.8174" y="1013.4789">Ver Perfil</text></g><!--entity UC4--><g class="entity" data-qualified-name="Sistema SmartComedor.Autenticaci..n.UC4" data-source-line="20" id="ent0010"><ellipse cx="309.7753" cy="864.8279" fill="#F1F1F1" rx="71.3053" ry="16.6611" style="stroke:#181818;stroke-width:0.5;"/><text fill="#000000" font-family="sans-serif" font-size="14" lengthAdjust="spacing" textLength="109.6484" x="254.9511" y="869.4764">Actualizar Perfil</text></g><!--entity UC5--><g class="entity" data-qualified-name="Sistema SmartComedor.Funcionalidades Estudiante.UC5" data-source-line="27" id="ent0012"><ellipse cx="309.775" cy="440.8259" fill="#F1F1F1" rx="117.695" ry="25.939" style="stroke:#181818;stroke-width:0.5;"/><text fill="#000000" font-family="sans-serif" font-size="14" lengthAdjust="spacing" textLength="214.4297" x="202.5602" y="445.4743">Registrar Cuenta (con SISBEN)</text></g><!--entity UC5a--><g class="entity" data-qualified-name="Sistema SmartComedor.Funcionalidades Estudiante.UC5a" data-source-line="28" id="ent0013"><ellipse cx="670.1045" cy="440.8278" fill="#F1F1F1" rx="81.5545" ry="18.7109" style="stroke:#181818;stroke-width:0.5;"/><text fill="#000000" font-family="sans-serif" font-size="14" lengthAdjust="spacing" textLength="134.3262" x="602.9414" y="445.4762">Validaci&#195;&#179;n SISBEN</text></g><!--entity UC6--><g class="entity" data-qualified-name="Sistema SmartComedor.Funcionalidades Estudiante.UC6" data-source-line="29" id="ent0014"><ellipse cx="309.7763" cy="525.8281" fill="#F1F1F1" rx="109.7063" ry="24.3413" style="stroke:#181818;stroke-width:0.5;"/><text fill="#000000" font-family="sans-serif" font-size="14" lengthAdjust="spacing" textLength="197.2441" x="211.1542" y="530.4766">Subir Comprobante de Pago</text></g><!--entity UC7--><g class="entity" data-qualified-name="Sistema SmartComedor.Funcionalidades Estudiante.UC7" data-source-line="30" id="ent0015"><ellipse cx="309.7819" cy="608.8293" fill="#F1F1F1" rx="105.1119" ry="23.4224" style="stroke:#181818;stroke-width:0.5;"/><text fill="#000000" font-family="sans-serif" font-size="14" lengthAdjust="spacing" textLength="187.2637" x="216.1501" y="613.4777">Ver Almuerzos Disponibles</text></g><!--entity UC8--><g class="entity" data-qualified-name="Sistema SmartComedor.Funcionalidades Estudiante.UC8" data-source-line="31" id="ent0016"><ellipse cx="309.7808" cy="687.831" fill="#F1F1F1" rx="90.6708" ry="20.5342" style="stroke:#181818;stroke-width:0.5;"/><text fill="#000000" font-family="sans-serif" font-size="14" lengthAdjust="spacing" textLength="155.2578" x="232.1519" y="692.4795">Calificar Servicio (1-5)</text></g><!--entity UC9--><g class="entity" data-qualified-name="Sistema SmartComedor.Funcionalidades Estudiante.UC9" data-source-line="32" id="ent0017"><ellipse cx="309.7825" cy="757.8294" fill="#F1F1F1" rx="61.6125" ry="14.7225" style="stroke:#181818;stroke-width:0.5;"/><text fill="#000000" font-family="sans-serif" font-size="14" lengthAdjust="spacing" textLength="84.2734" x="267.6458" y="762.4778">Ver Noticias</text></g><!--entity UC10--><g class="entity" data-qualified-name="Sistema SmartComedor.Funcionalidades Estudiante.UC10" data-source-line="33" id="ent0018"><ellipse cx="309.782" cy="290.8233" fill="#F1F1F1" rx="98.632" ry="22.1264" style="stroke:#181818;stroke-width:0.5;"/><text fill="#000000" font-family="sans-serif" font-size="14" lengthAdjust="spacing" textLength="173.0381" x="223.2629" y="295.4717">Enviar Queja/Sugerencia</text></g><!--entity UC11--><g class="entity" data-qualified-name="Sistema SmartComedor.Funcionalidades Estudiante.UC11" data-source-line="34" id="ent0019"><ellipse cx="309.783" cy="363.8275" fill="#F1F1F1" rx="69.403" ry="16.2806" style="stroke:#181818;stroke-width:0.5;"/><text fill="#000000" font-family="sans-serif" font-size="14" lengthAdjust="spacing" textLength="104.8701" x="257.348" y="368.4759">Configurar 2FA</text></g><!--entity UC12--><g class="entity" data-qualified-name="Sistema SmartComedor.Funcionalidades Administrador.UC12" data-source-line="41" id="ent0021"><ellipse cx="309.7782" cy="1542.8265" fill="#F1F1F1" rx="94.1482" ry="21.2296" style="stroke:#181818;stroke-width:0.5;"/><text fill="#000000" font-family="sans-serif" font-size="14" lengthAdjust="spacing" textLength="163.0713" x="228.2425" y="1547.4749">Gestionar Supervisores</text></g><!--entity UC12a--><g class="entity" data-qualified-name="Sistema SmartComedor.Funcionalidades Administrador.UC12a" data-source-line="42" id="ent0022"><ellipse cx="670.1014" cy="1615.8252" fill="#F1F1F1" rx="74.5914" ry="17.3183" style="stroke:#181818;stroke-width:0.5;"/><text fill="#000000" font-family="sans-serif" font-size="14" lengthAdjust="spacing" textLength="117.7354" x="611.2337" y="1620.4736">Crear Supervisor</text></g><!--entity UC12b--><g class="entity" data-qualified-name="Sistema SmartComedor.Funcionalidades Administrador.UC12b" data-source-line="43" id="ent0023"><ellipse cx="670.1011" cy="1537.8231" fill="#F1F1F1" rx="117.6311" ry="25.9262" style="stroke:#181818;stroke-width:0.5;"/><text fill="#000000" font-family="sans-serif" font-size="14" lengthAdjust="spacing" textLength="214.293" x="562.9546" y="1542.4715">Habilitar/Inhabilitar Supervisor</text></g><!--entity UC12c--><g class="entity" data-qualified-name="Sistema SmartComedor.Funcionalidades Administrador.UC12c" data-source-line="44" id="ent0024"><ellipse cx="670.0965" cy="1452.8242" fill="#F1F1F1" rx="107.0365" ry="23.8073" style="stroke:#181818;stroke-width:0.5;"/><text fill="#000000" font-family="sans-serif" font-size="14" lengthAdjust="spacing" textLength="191.4541" x="574.3695" y="1457.4726">Generar Link de Invitaci&#195;&#179;n</text></g><!--entity UC13--><g class="entity" data-qualified-name="Sistema SmartComedor.Funcionalidades Administrador.UC13" data-source-line="45" id="ent0025"><ellipse cx="670.0987" cy="1692.8306" fill="#F1F1F1" rx="111.0187" ry="24.6037" style="stroke:#181818;stroke-width:0.5;"/><text fill="#000000" font-family="sans-serif" font-size="14" lengthAdjust="spacing" textLength="200.0811" x="570.0581" y="1697.479">Importar Estudiantes (Excel)</text></g><!--entity UC14--><g class="entity" data-qualified-name="Sistema SmartComedor.Funcionalidades Administrador.UC14" data-source-line="46" id="ent0026"><ellipse cx="996.059" cy="1680.8227" fill="#F1F1F1" rx="90.329" ry="20.4658" style="stroke:#181818;stroke-width:0.5;"/><text fill="#000000" font-family="sans-serif" font-size="14" lengthAdjust="spacing" textLength="154.4854" x="918.8163" y="1685.4711">Gestionar Estudiantes</text></g><!--entity UC14a--><g class="entity" data-qualified-name="Sistema SmartComedor.Funcionalidades Administrador.UC14a" data-source-line="47" id="ent0027"><ellipse cx="1305.8674" cy="1696.8244" fill="#F1F1F1" rx="81.9874" ry="18.7975" style="stroke:#181818;stroke-width:0.5;"/><text fill="#000000" font-family="sans-serif" font-size="14" lengthAdjust="spacing" textLength="135.3379" x="1238.1985" y="1701.4728">Agregar Estudiante</text></g><!--entity UC14b--><g class="entity" data-qualified-name="Sistema SmartComedor.Funcionalidades Administrador.UC14b" data-source-line="48" id="ent0028"><ellipse cx="1305.8674" cy="1625.8224" fill="#F1F1F1" rx="75.8274" ry="17.5655" style="stroke:#181818;stroke-width:0.5;"/><text fill="#000000" font-family="sans-serif" font-size="14" lengthAdjust="spacing" textLength="120.7295" x="1245.5026" y="1630.4708">Editar Estudiante</text></g><!--entity UC14c--><g class="entity" data-qualified-name="Sistema SmartComedor.Funcionalidades Administrador.UC14c" data-source-line="49" id="ent0029"><ellipse cx="1305.8655" cy="1551.822" fill="#F1F1F1" rx="94.4755" ry="21.2951" style="stroke:#181818;stroke-width:0.5;"/><text fill="#000000" font-family="sans-serif" font-size="14" lengthAdjust="spacing" textLength="163.8027" x="1223.9641" y="1556.4704">Deshabilitar Estudiante</text></g><!--entity UC15--><g class="entity" data-qualified-name="Sistema SmartComedor.Funcionalidades Administrador.UC15" data-source-line="50" id="ent0030"><ellipse cx="309.7757" cy="1470.822" fill="#F1F1F1" rx="66.5757" ry="15.7151" style="stroke:#181818;stroke-width:0.5;"/><text fill="#000000" font-family="sans-serif" font-size="14" lengthAdjust="spacing" textLength="97.6104" x="260.9705" y="1475.4705">Verificar Pago</text></g><!--entity UC16--><g class="entity" data-qualified-name="Sistema SmartComedor.Funcionalidades Administrador.UC16" data-source-line="51" id="ent0031"><ellipse cx="309.7821" cy="1618.8313" fill="#F1F1F1" rx="88.1721" ry="20.0344" style="stroke:#181818;stroke-width:0.5;"/><text fill="#000000" font-family="sans-serif" font-size="14" lengthAdjust="spacing" textLength="149.5908" x="234.9866" y="1623.4797">Validar Datos SISBEN</text></g><!--entity UC17--><g class="entity" data-qualified-name="Sistema SmartComedor.Funcionalidades Administrador.UC17" data-source-line="52" id="ent0032"><ellipse cx="309.7841" cy="1695.8317" fill="#F1F1F1" rx="99.8241" ry="22.3648" style="stroke:#181818;stroke-width:0.5;"/><text fill="#000000" font-family="sans-serif" font-size="14" lengthAdjust="spacing" textLength="175.6699" x="221.9491" y="1700.4801">Asignar Est. a Supervisor</text></g><!--entity UC18--><g class="entity" data-qualified-name="Sistema SmartComedor.Funcionalidades Administrador.UC18" data-source-line="53" id="ent0033"><ellipse cx="309.7801" cy="1182.8309" fill="#F1F1F1" rx="77.3701" ry="17.874" style="stroke:#181818;stroke-width:0.5;"/><text fill="#000000" font-family="sans-serif" font-size="14" lengthAdjust="spacing" textLength="124.4346" x="247.5628" y="1187.4793">Generar Reportes</text></g><!--entity UC19--><g class="entity" data-qualified-name="Sistema SmartComedor.Funcionalidades Administrador.UC19" data-source-line="54" id="ent0034"><ellipse cx="309.7771" cy="1253.8303" fill="#F1F1F1" rx="78.9671" ry="18.1934" style="stroke:#181818;stroke-width:0.5;"/><text fill="#000000" font-family="sans-serif" font-size="14" lengthAdjust="spacing" textLength="128.2354" x="245.6594" y="1258.4787">Gestionar Noticias</text></g><!--entity UC20--><g class="entity" data-qualified-name="Sistema SmartComedor.Funcionalidades Administrador.UC20" data-source-line="55" id="ent0035"><ellipse cx="309.7802" cy="1324.8249" fill="#F1F1F1" rx="78.8402" ry="18.168" style="stroke:#181818;stroke-width:0.5;"/><text fill="#000000" font-family="sans-serif" font-size="14" lengthAdjust="spacing" textLength="127.9346" x="245.8129" y="1329.4734">Responder Quejas</text></g><!--entity UC21--><g class="entity" data-qualified-name="Sistema SmartComedor.Funcionalidades Administrador.UC21" data-source-line="56" id="ent0036"><ellipse cx="309.7753" cy="1398.8239" fill="#F1F1F1" rx="93.4853" ry="21.0971" style="stroke:#181818;stroke-width:0.5;"/><text fill="#000000" font-family="sans-serif" font-size="14" lengthAdjust="spacing" textLength="161.5879" x="228.9813" y="1403.4724">Ver Logs de Auditor&#195;&#173;a</text></g><!--entity UC22--><g class="entity" data-qualified-name="Sistema SmartComedor.Funcionalidades Supervisor.UC22" data-source-line="63" id="ent0038"><ellipse cx="309.7831" cy="1964.8235" fill="#F1F1F1" rx="78.4831" ry="18.0966" style="stroke:#181818;stroke-width:0.5;"/><text fill="#000000" font-family="sans-serif" font-size="14" lengthAdjust="spacing" textLength="127.0869" x="246.2396" y="1969.4719">Buscar Estudiante</text></g><!--entity UC23--><g class="entity" data-qualified-name="Sistema SmartComedor.Funcionalidades Supervisor.UC23" data-source-line="64" id="ent0039"><ellipse cx="309.7803" cy="2039.8309" fill="#F1F1F1" rx="99.1703" ry="22.2341" style="stroke:#181818;stroke-width:0.5;"/><text fill="#000000" font-family="sans-serif" font-size="14" lengthAdjust="spacing" textLength="174.2275" x="222.6666" y="2044.4794">Ver Datos del Estudiante</text></g><!--entity UC24--><g class="entity" data-qualified-name="Sistema SmartComedor.Funcionalidades Supervisor.UC24" data-source-line="65" id="ent0040"><ellipse cx="309.7753" cy="1811.8299" fill="#F1F1F1" rx="81.7153" ry="18.7431" style="stroke:#181818;stroke-width:0.5;"/><text fill="#000000" font-family="sans-serif" font-size="14" lengthAdjust="spacing" textLength="134.7021" x="242.4242" y="1816.4784">Registrar Almuerzo</text></g><!--entity UC25--><g class="entity" data-qualified-name="Sistema SmartComedor.Funcionalidades Supervisor.UC25" data-source-line="66" id="ent0041"><ellipse cx="309.7797" cy="1888.8288" fill="#F1F1F1" rx="103.5597" ry="23.1119" style="stroke:#181818;stroke-width:0.5;"/><text fill="#000000" font-family="sans-serif" font-size="14" lengthAdjust="spacing" textLength="183.873" x="217.8432" y="1893.4772">Ver Historial de Asistencia</text></g><!--entity Student--><g class="entity" data-qualified-name="Student" data-source-line="7" id="ent0002"><ellipse cx="55.5365" cy="665.6769" fill="#F1F1F1" rx="16" ry="16" style="stroke:#181818;stroke-width:0.5;"/><path d="M55.5365,685.6769 C59.5365,685.6769 62.5365,685.6769 66.5365,681.6769 C74.5365,681.6769 82.5365,689.6769 82.5365,697.6769 L82.5365,701.6769 C82.5365,705.6769 78.5365,709.6769 74.5365,709.6769 L36.5365,709.6769 C32.5365,709.6769 28.5365,705.6769 28.5365,701.6769 L28.5365,697.6769 C28.5365,689.6769 36.5365,681.6769 44.5365,681.6769 C48.5365,685.6769 51.5365,685.6769 55.5365,685.6769" fill="#F1F1F1" style="stroke:#181818;stroke-width:0.5;"/><text fill="#000000" font-family="sans-serif" font-size="14" lengthAdjust="spacing" textLength="74.833" x="18.12" y="723.172">Estudiante</text></g><!--entity Admin--><g class="entity" data-qualified-name="Admin" data-source-line="8" id="ent0003"><ellipse cx="55.54" cy="1376.6769" fill="#F1F1F1" rx="16" ry="16" style="stroke:#181818;stroke-width:0.5;"/><path d="M55.54,1396.6769 C59.54,1396.6769 62.54,1396.6769 66.54,1392.6769 C74.54,1392.6769 82.54,1400.6769 82.54,1408.6769 L82.54,1412.6769 C82.54,1416.6769 78.54,1420.6769 74.54,1420.6769 L36.54,1420.6769 C32.54,1420.6769 28.54,1416.6769 28.54,1412.6769 L28.54,1408.6769 C28.54,1400.6769 36.54,1392.6769 44.54,1392.6769 C48.54,1396.6769 51.54,1396.6769 55.54,1396.6769" fill="#F1F1F1" style="stroke:#181818;stroke-width:0.5;"/><text fill="#000000" font-family="sans-serif" font-size="14" lengthAdjust="spacing" textLength="99.0801" x="6" y="1434.172">Administrador</text></g><!--entity Supervisor--><g class="entity" data-qualified-name="Supervisor" data-source-line="9" id="ent0004"><ellipse cx="55.5428" cy="2256.6769" fill="#F1F1F1" rx="16" ry="16" style="stroke:#181818;stroke-width:0.5;"/><path d="M55.5428,2276.6769 C59.5428,2276.6769 62.5428,2276.6769 66.5428,2272.6769 C74.5428,2272.6769 82.5428,2280.6769 82.5428,2288.6769 L82.5428,2292.6769 C82.5428,2296.6769 78.5428,2300.6769 74.5428,2300.6769 L36.5428,2300.6769 C32.5428,2300.6769 28.5428,2296.6769 28.5428,2292.6769 L28.5428,2288.6769 C28.5428,2280.6769 36.5428,2272.6769 44.5428,2272.6769 C48.5428,2276.6769 51.5428,2276.6769 55.5428,2276.6769" fill="#F1F1F1" style="stroke:#181818;stroke-width:0.5;"/><text fill="#000000" font-family="sans-serif" font-size="14" lengthAdjust="spacing" textLength="74.8057" x="18.14" y="2314.172">Supervisor</text></g><g class="entity" data-qualified-name="GMN80" data-source-line="118" id="ent0081"><path d="M572.22,43.2969 L572.22,174.3594 L767.9837,174.3594 L767.9837,53.2969 L757.9837,43.2969 L572.22,43.2969" fill="#FEFFDD" style="stroke:#181818;stroke-width:0.5;"/><path d="M757.9837,43.2969 L757.9837,53.2969 L767.9837,53.2969 L757.9837,43.2969" fill="#FEFFDD" style="stroke:#181818;stroke-width:1;"/><text fill="#000000" font-family="sans-serif" font-size="13" font-weight="bold" lengthAdjust="spacing" textLength="27.936" x="578.22" y="60.3638">RF3</text><text fill="#000000" font-family="sans-serif" font-size="13" lengthAdjust="spacing" textLength="94.4277" x="606.156" y="60.3638">: Registro con:</text><text fill="#000000" font-family="sans-serif" font-size="13" lengthAdjust="spacing" textLength="108.1641" x="578.22" y="75.4966">- Email (max 30)</text><text fill="#000000" font-family="sans-serif" font-size="13" lengthAdjust="spacing" textLength="124.0332" x="578.22" y="90.6294">- Nombre (max 20)</text><text fill="#000000" font-family="sans-serif" font-size="13" lengthAdjust="spacing" textLength="124.2808" x="578.22" y="105.7622">- Apellido (max 20)</text><text fill="#000000" font-family="sans-serif" font-size="13" lengthAdjust="spacing" textLength="169.2983" x="578.22" y="120.895">- C&#195;&#169;dula (6-12 d&#195;&#173;gitos)</text><text fill="#000000" font-family="sans-serif" font-size="13" lengthAdjust="spacing" textLength="165.8198" x="578.22" y="136.0278">- Password (8 caracteres)</text><text fill="#000000" font-family="sans-serif" font-size="13" lengthAdjust="spacing" textLength="121.1387" x="578.22" y="151.1606">- Carrera (max 25)</text><text fill="#000000" font-family="sans-serif" font-size="13" lengthAdjust="spacing" textLength="174.7637" x="578.22" y="166.2935">- Archivo SISBEN (PDF/JPG)</text></g><g class="entity" data-qualified-name="GMN83" data-source-line="129" id="ent0084"><path d="M562.12,2117.4269 L562.12,2218.2238 L778.0756,2218.2238 L778.0756,2127.4269 L768.0756,2117.4269 L562.12,2117.4269" fill="#FEFFDD" style="stroke:#181818;stroke-width:0.5;"/><path d="M768.0756,2117.4269 L768.0756,2127.4269 L778.0756,2127.4269 L768.0756,2117.4269" fill="#FEFFDD" style="stroke:#181818;stroke-width:1;"/><text fill="#000000" font-family="sans-serif" font-size="13" font-weight="bold" lengthAdjust="spacing" textLength="36.9814" x="568.12" y="2134.4938">RF13</text><text fill="#000000" font-family="sans-serif" font-size="13" lengthAdjust="spacing" textLength="154.0894" x="605.1014" y="2134.4938">: El supervisor confirma</text><text fill="#000000" font-family="sans-serif" font-size="13" lengthAdjust="spacing" textLength="190.106" x="568.12" y="2149.6266">el uso del comedor mediante</text><text fill="#000000" font-family="sans-serif" font-size="13" lengthAdjust="spacing" textLength="117.8887" x="568.12" y="2164.7594">el bot&#195;&#179;n "Firmar"</text><text fill="#000000" font-family="sans-serif" font-size="13" lengthAdjust="spacing" textLength="4.1323" x="568.12" y="2179.8922">&#160;</text><text fill="#000000" font-family="sans-serif" font-size="13" font-weight="bold" lengthAdjust="spacing" textLength="36.9814" x="568.12" y="2195.025">RF14</text><text fill="#000000" font-family="sans-serif" font-size="13" lengthAdjust="spacing" textLength="114.3594" x="605.1014" y="2195.025">: Se env&#195;&#173;a email</text><text fill="#000000" font-family="sans-serif" font-size="13" lengthAdjust="spacing" textLength="194.9556" x="568.12" y="2210.1578">autom&#195;&#161;tico de confirmaci&#195;&#179;n</text></g><g class="entity" data-qualified-name="GMN86" data-source-line="138" id="ent0087"><path d="M212.76,119.1269 L212.76,174.5253 L406.7908,174.5253 L406.7908,129.1269 L396.7908,119.1269 L212.76,119.1269" fill="#FEFFDD" style="stroke:#181818;stroke-width:0.5;"/><path d="M396.7908,119.1269 L396.7908,129.1269 L406.7908,129.1269 L396.7908,119.1269" fill="#FEFFDD" style="stroke:#181818;stroke-width:1;"/><text fill="#000000" font-family="sans-serif" font-size="13" font-weight="bold" lengthAdjust="spacing" textLength="27.936" x="218.76" y="136.1938">RF9</text><text fill="#000000" font-family="sans-serif" font-size="13" lengthAdjust="spacing" textLength="129.0352" x="246.696" y="136.1938">: Regla del negocio:</text><text fill="#000000" font-family="sans-serif" font-size="13" lengthAdjust="spacing" textLength="164.7979" x="218.76" y="151.3266">$2000 COP = 1 almuerzo</text><text fill="#000000" font-family="sans-serif" font-size="13" lengthAdjust="spacing" textLength="173.0308" x="218.76" y="166.4594">Ej: $10,000 = 5 almuerzos</text></g><!--link Student to UC1--><g class="link" data-entity-1="ent0002" data-entity-2="ent0007" data-link-type="dependency" data-source-line="71" id="lnk42"><path d="M60.95,726.6969 C71.1,809.1469 98.77,997.5269 144.08,1040.8269 C170.12,1065.7069 203.3727,1073.8772 237.0227,1076.0672" fill="none" id="Student-to-UC1" style="stroke:#181818;stroke-width:1;"/><polygon fill="#181818" points="243.01,1076.4569,234.2888,1071.8808,238.0206,1076.1322,233.7692,1079.8639,243.01,1076.4569" style="stroke:#181818;stroke-width:1;"/></g><!--link Student to UC2--><g class="link" data-entity-1="ent0002" data-entity-2="ent0008" data-link-type="dependency" data-source-line="72" id="lnk43"><path d="M61.85,726.7969 C70.47,774.5669 92.13,854.6169 144.08,898.8269 C164.22,915.9669 184.6997,924.5898 210.3797,930.2298" fill="none" id="Student-to-UC2" style="stroke:#181818;stroke-width:1;"/><polygon fill="#181818" points="216.24,931.5169,208.3076,925.6794,211.3564,930.4443,206.5915,933.4931,216.24,931.5169" style="stroke:#181818;stroke-width:1;"/></g><!--link Student to UC3--><g class="link" data-entity-1="ent0002" data-entity-2="ent0009" data-link-type="dependency" data-source-line="73" id="lnk44"><path d="M56.38,726.9369 C58.39,789.5269 71.99,911.7569 144.08,976.8269 C175.97,1005.6169 219.79,1011.8388 256.29,1011.9488" fill="none" id="Student-to-UC3" style="stroke:#181818;stroke-width:1;"/><polygon fill="#181818" points="262.29,1011.9669,253.3021,1007.9398,257.29,1011.9518,253.278,1015.9397,262.29,1011.9669" style="stroke:#181818;stroke-width:1;"/></g><!--link Student to UC4--><g class="link" data-entity-1="ent0002" data-entity-2="ent0010" data-link-type="dependency" data-source-line="74" id="lnk45"><path d="M84.02,726.9069 C99.82,747.3069 121.08,771.5369 144.08,788.8269 C181.84,817.2069 226.2502,836.3793 261.2302,849.0793" fill="none" id="Student-to-UC4" style="stroke:#181818;stroke-width:1;"/><polygon fill="#181818" points="266.87,851.1269,259.7754,844.2956,262.1702,849.4205,257.0452,851.8153,266.87,851.1269" style="stroke:#181818;stroke-width:1;"/></g><!--link Student to UC5--><g class="link" data-entity-1="ent0002" data-entity-2="ent0012" data-link-type="dependency" data-source-line="75" id="lnk46"><path d="M62.72,648.6969 C72.11,602.4969 94.41,526.5569 144.08,483.8269 C161.22,469.0869 177.0658,461.0166 198.9358,454.5566" fill="none" id="Student-to-UC5" style="stroke:#181818;stroke-width:1;"/><polygon fill="#181818" points="204.69,452.8569,194.9255,451.5703,199.8948,454.2733,197.1918,459.2426,204.69,452.8569" style="stroke:#181818;stroke-width:1;"/></g><!--reverse link UC5 to UC5a--><g class="link" data-entity-1="ent0012" data-entity-2="ent0013" data-link-type="dependency" data-source-line="76" id="lnk47"><path d="M433.61,440.8269 C486.1,440.8269 540.74,440.8269 588.12,440.8269" fill="none" id="UC5-backto-UC5a" style="stroke:#181818;stroke-width:1;stroke-dasharray:7,7;"/><polygon fill="#181818" points="427.61,440.8269,436.61,444.8269,432.61,440.8269,436.61,436.8269,427.61,440.8269" style="stroke:#181818;stroke-width:1;"/><text fill="#000000" font-family="sans-serif" font-size="13" lengthAdjust="spacing" textLength="63.0068" x="458.47" y="436.8938">&#171;include&#187;</text></g><!--link Student to UC6--><g class="link" data-entity-1="ent0002" data-entity-2="ent0014" data-link-type="dependency" data-source-line="77" id="lnk48"><path d="M75.76,648.7069 C90.81,622.0569 114.18,588.0669 144.08,567.8269 C164.85,553.7669 184.1678,545.9064 208.4778,539.6764" fill="none" id="Student-to-UC6" style="stroke:#181818;stroke-width:1;"/><polygon fill="#181818" points="214.29,538.1869,204.5787,536.5463,209.4465,539.4281,206.5647,544.2959,214.29,538.1869" style="stroke:#181818;stroke-width:1;"/></g><!--link Student to UC7--><g class="link" data-entity-1="ent0002" data-entity-2="ent0015" data-link-type="dependency" data-source-line="78" id="lnk49"><path d="M93.07,670.3669 C108.57,663.3769 126.98,655.6269 144.08,649.8269 C172.54,640.1769 198.6335,633.108 226.7435,626.408" fill="none" id="Student-to-UC7" style="stroke:#181818;stroke-width:1;"/><polygon fill="#181818" points="232.58,625.0169,222.8978,623.2126,227.7162,626.1761,224.7527,630.9946,232.58,625.0169" style="stroke:#181818;stroke-width:1;"/></g><!--link Student to UC8--><g class="link" data-entity-1="ent0002" data-entity-2="ent0016" data-link-type="dependency" data-source-line="79" id="lnk50"><path d="M93.22,687.8269 C126.01,687.8269 169.42,687.8269 212.67,687.8269" fill="none" id="Student-to-UC8" style="stroke:#181818;stroke-width:1;"/><polygon fill="#181818" points="218.67,687.8269,209.67,683.8269,213.67,687.8269,209.67,691.8269,218.67,687.8269" style="stroke:#181818;stroke-width:1;"/></g><!--link Student to UC9--><g class="link" data-entity-1="ent0002" data-entity-2="ent0017" data-link-type="dependency" data-source-line="80" id="lnk51"><path d="M93.35,705.9269 C108.74,712.9369 126.99,720.5269 144.08,725.8269 C180.66,737.1769 217.1956,744.3576 249.8356,749.5876" fill="none" id="Student-to-UC9" style="stroke:#181818;stroke-width:1;"/><polygon fill="#181818" points="255.76,750.5369,247.5062,745.1633,250.823,749.7458,246.2405,753.0626,255.76,750.5369" style="stroke:#181818;stroke-width:1;"/></g><!--link Student to UC10--><g class="link" data-entity-1="ent0002" data-entity-2="ent0018" data-link-type="dependency" data-source-line="81" id="lnk52"><path d="M60.95,648.8469 C71.13,565.6469 98.96,374.6269 144.08,329.8269 C162.54,311.5069 182.0546,302.5063 207.3646,296.8463" fill="none" id="Student-to-UC10" style="stroke:#181818;stroke-width:1;"/><polygon fill="#181818" points="213.22,295.5369,203.564,293.5974,208.3405,296.6281,205.3099,301.4046,213.22,295.5369" style="stroke:#181818;stroke-width:1;"/></g><!--link Student to UC11--><g class="link" data-entity-1="ent0002" data-entity-2="ent0019" data-link-type="dependency" data-source-line="82" id="lnk53"><path d="M56.43,648.6869 C58.5,586.0169 72.17,463.5669 144.08,397.8269 C169.83,374.2869 201.453,365.8422 234.223,362.9622" fill="none" id="Student-to-UC11" style="stroke:#181818;stroke-width:1;"/><polygon fill="#181818" points="240.2,362.4369,230.8844,359.2402,235.2192,362.8746,231.5847,367.2094,240.2,362.4369" style="stroke:#181818;stroke-width:1;"/></g><!--link Admin to UC1--><g class="link" data-entity-1="ent0003" data-entity-2="ent0007" data-link-type="dependency" data-source-line="85" id="lnk54"><path d="M60.66,1359.7269 C68.24,1305.9769 89.03,1209.0969 144.08,1148.8269 C174.8,1115.1869 217.801,1097.2804 254.301,1086.6104" fill="none" id="Admin-to-UC1" style="stroke:#181818;stroke-width:1;"/><polygon fill="#181818" points="260.06,1084.9269,250.2992,1083.6128,255.2609,1086.3298,252.5439,1091.2915,260.06,1084.9269" style="stroke:#181818;stroke-width:1;"/></g><!--link Admin to UC2--><g class="link" data-entity-1="ent0003" data-entity-2="ent0008" data-link-type="dependency" data-source-line="86" id="lnk55"><path d="M59.38,1359.7469 C66.99,1265.8769 91,1031.4069 144.08,976.8269 C162.52,957.8669 182.4862,948.688 208.2262,943.108" fill="none" id="Admin-to-UC2" style="stroke:#181818;stroke-width:1;"/><polygon fill="#181818" points="214.09,941.8369,204.4469,939.8344,209.2035,942.8962,206.1418,947.6528,214.09,941.8369" style="stroke:#181818;stroke-width:1;"/></g><!--link Admin to UC3--><g class="link" data-entity-1="ent0003" data-entity-2="ent0009" data-link-type="dependency" data-source-line="87" id="lnk56"><path d="M66.03,1359.8769 C88.61,1267.1969 143.71,1041.1769 144.08,1040.8269 C175.39,1010.9869 219.7901,1004.9594 256.6001,1005.1894" fill="none" id="Admin-to-UC3" style="stroke:#181818;stroke-width:1;"/><polygon fill="#181818" points="262.6,1005.2269,253.6252,1001.1707,257.6001,1005.1956,253.5752,1009.1706,262.6,1005.2269" style="stroke:#181818;stroke-width:1;"/></g><!--link Admin to UC12--><g class="link" data-entity-1="ent0003" data-entity-2="ent0021" data-link-type="dependency" data-source-line="88" id="lnk57"><path d="M79.86,1437.7769 C95.34,1460.3569 117.64,1487.4669 144.08,1503.8269 C168.07,1518.6769 191.3487,1526.631 218.4287,1532.331" fill="none" id="Admin-to-UC12" style="stroke:#181818;stroke-width:1;"/><polygon fill="#181818" points="224.3,1533.5669,216.3169,1527.7989,219.4072,1532.537,214.6691,1535.6273,224.3,1533.5669" style="stroke:#181818;stroke-width:1;"/></g><!--reverse link UC12 to UC12a--><g class="link" data-entity-1="ent0021" data-entity-2="ent0022" data-link-type="dependency" data-source-line="89" id="lnk58"><path d="M386.5892,1558.2747 C454.4192,1572.0947 550.13,1591.5869 612.87,1604.3769" fill="none" id="UC12-backto-UC12a" style="stroke:#181818;stroke-width:1;stroke-dasharray:7,7;"/><polygon fill="#181818" points="380.71,1557.0769,388.7302,1562.7931,385.6093,1558.0751,390.3274,1554.9542,380.71,1557.0769" style="stroke:#181818;stroke-width:1;"/><text fill="#000000" font-family="sans-serif" font-size="13" lengthAdjust="spacing" textLength="63.0068" x="458.47" y="1568.8538">&#171;include&#187;</text></g><!--reverse link UC12 to UC12b--><g class="link" data-entity-1="ent0021" data-entity-2="ent0023" data-link-type="dependency" data-source-line="90" id="lnk59"><path d="M409.9894,1541.4434 C455.2894,1540.8134 504.22,1540.1269 552.29,1539.4569" fill="none" id="UC12-backto-UC12b" style="stroke:#181818;stroke-width:1;stroke-dasharray:7,7;"/><polygon fill="#181818" points="403.99,1541.5269,413.0448,1545.4013,408.9895,1541.4573,412.9335,1537.4021,403.99,1541.5269" style="stroke:#181818;stroke-width:1;"/><text fill="#000000" font-family="sans-serif" font-size="13" lengthAdjust="spacing" textLength="63.0068" x="458.47" y="1535.9438">&#171;include&#187;</text></g><!--reverse link UC12 to UC12c--><g class="link" data-entity-1="ent0021" data-entity-2="ent0024" data-link-type="dependency" data-source-line="91" id="lnk60"><path d="M379.8292,1525.4849 C442.5192,1509.7349 532.56,1487.1269 597.89,1470.7169" fill="none" id="UC12-backto-UC12c" style="stroke:#181818;stroke-width:1;stroke-dasharray:7,7;"/><polygon fill="#181818" points="374.01,1526.9469,383.7134,1528.6333,378.8593,1525.7286,381.7641,1520.8745,374.01,1526.9469" style="stroke:#181818;stroke-width:1;"/><text fill="#000000" font-family="sans-serif" font-size="13" lengthAdjust="spacing" textLength="63.0068" x="458.47" y="1485.8338">&#171;include&#187;</text></g><!--link Admin to UC13--><g class="link" data-entity-1="ent0003" data-entity-2="ent0025" data-link-type="dependency" data-source-line="92" id="lnk61"><path d="M58.62,1437.8569 C66.36,1575.9269 95.6,2035.1969 144.08,2077.8269 C241.96,2163.8969 323.87,2141.9569 437.33,2077.8269 C579.96,1997.2069 643.0473,1795.5957 661.6573,1723.6557" fill="none" id="Admin-to-UC13" style="stroke:#181818;stroke-width:1;"/><polygon fill="#181818" points="663.16,1717.8469,657.0335,1725.5583,661.9078,1722.6875,664.7785,1727.5618,663.16,1717.8469" style="stroke:#181818;stroke-width:1;"/></g><!--link Admin to UC14--><g class="link" data-entity-1="ent0003" data-entity-2="ent0026" data-link-type="dependency" data-source-line="93" id="lnk62"><path d="M58.51,1437.9069 C66.2,1583.7069 96.18,2090.1969 144.08,2142.8269 C338.61,2356.6069 550.27,2400.6169 787.73,2235.8269 C974.7,2106.0869 993.235,1792.0558 994.855,1707.5558" fill="none" id="Admin-to-UC14" style="stroke:#181818;stroke-width:1;"/><polygon fill="#181818" points="994.97,1701.5569,990.7982,1710.4785,994.8742,1706.556,998.7968,1710.6319,994.97,1701.5569" style="stroke:#181818;stroke-width:1;"/></g><!--reverse link UC14 to UC14a--><g class="link" data-entity-1="ent0026" data-entity-2="ent0027" data-link-type="dependency" data-source-line="94" id="lnk63"><path d="M1090.4319,1685.679 C1134.7819,1687.989 1182.26,1690.4569 1225.43,1692.6969" fill="none" id="UC14-backto-UC14a" style="stroke:#181818;stroke-width:1;stroke-dasharray:7,7;"/><polygon fill="#181818" points="1084.44,1685.3669,1093.2198,1689.8296,1089.4332,1685.627,1093.6359,1681.8404,1084.44,1685.3669" style="stroke:#181818;stroke-width:1;"/><text fill="#000000" font-family="sans-serif" font-size="13" lengthAdjust="spacing" textLength="63.0068" x="1117.39" y="1683.4638">&#171;include&#187;</text></g><!--reverse link UC14 to UC14b--><g class="link" data-entity-1="ent0026" data-entity-2="ent0028" data-link-type="dependency" data-source-line="95" id="lnk64"><path d="M1073.9664,1667.0814 C1127.4064,1657.5314 1193.95,1645.6469 1244.59,1636.5969" fill="none" id="UC14-backto-UC14b" style="stroke:#181818;stroke-width:1;stroke-dasharray:7,7;"/><polygon fill="#181818" points="1068.06,1668.1369,1077.6233,1670.4912,1072.982,1667.2573,1076.216,1662.616,1068.06,1668.1369" style="stroke:#181818;stroke-width:1;"/><text fill="#000000" font-family="sans-serif" font-size="13" lengthAdjust="spacing" textLength="63.0068" x="1117.39" y="1644.4638">&#171;include&#187;</text></g><!--reverse link UC14 to UC14c--><g class="link" data-entity-1="ent0026" data-entity-2="ent0029" data-link-type="dependency" data-source-line="96" id="lnk65"><path d="M1039.9717,1659.2941 C1063.3017,1647.7941 1088.64,1635.7269 1116.39,1623.8269 C1162.42,1604.0769 1215.84,1583.9269 1254.02,1569.9869" fill="none" id="UC14-backto-UC14c" style="stroke:#181818;stroke-width:1;stroke-dasharray:7,7;"/><polygon fill="#181818" points="1034.59,1661.9469,1044.4311,1661.5555,1039.0748,1659.7362,1040.894,1654.3799,1034.59,1661.9469" style="stroke:#181818;stroke-width:1;"/><text fill="#000000" font-family="sans-serif" font-size="13" lengthAdjust="spacing" textLength="63.0068" x="1117.39" y="1594.7438">&#171;include&#187;</text></g><!--link Admin to UC15--><g class="link" data-entity-1="ent0003" data-entity-2="ent0030" data-link-type="dependency" data-source-line="97" id="lnk66"><path d="M105.33,1422.8469 C117.76,1428.3269 131.24,1433.7369 144.08,1437.8269 C179.23,1449.0269 213.9337,1456.2182 246.0437,1461.6382" fill="none" id="Admin-to-UC15" style="stroke:#181818;stroke-width:1;"/><polygon fill="#181818" points="251.96,1462.6369,243.7513,1457.1947,247.0297,1461.8047,242.4198,1465.0831,251.96,1462.6369" style="stroke:#181818;stroke-width:1;"/></g><!--link Admin to UC16--><g class="link" data-entity-1="ent0003" data-entity-2="ent0031" data-link-type="dependency" data-source-line="98" id="lnk67"><path d="M64.53,1437.6469 C75.26,1479.6669 98.49,1545.5069 144.08,1581.8269 C166.54,1599.7269 190.0371,1608.2719 217.7671,1613.3219" fill="none" id="Admin-to-UC16" style="stroke:#181818;stroke-width:1;"/><polygon fill="#181818" points="223.67,1614.3969,215.5323,1608.8491,218.7509,1613.501,214.099,1616.7197,223.67,1614.3969" style="stroke:#181818;stroke-width:1;"/></g><!--link Admin to UC17--><g class="link" data-entity-1="ent0003" data-entity-2="ent0032" data-link-type="dependency" data-source-line="99" id="lnk68"><path d="M58.41,1437.9269 C63.31,1494.6769 80.92,1599.3769 144.08,1656.8269 C163.1,1674.1269 182.5105,1682.8214 207.5205,1688.5314" fill="none" id="Admin-to-UC17" style="stroke:#181818;stroke-width:1;"/><polygon fill="#181818" points="213.37,1689.8669,205.4861,1683.964,208.4954,1688.754,203.7054,1691.7633,213.37,1689.8669" style="stroke:#181818;stroke-width:1;"/></g><!--link Admin to UC18--><g class="link" data-entity-1="ent0003" data-entity-2="ent0033" data-link-type="dependency" data-source-line="100" id="lnk69"><path d="M64.68,1359.9469 C75.49,1318.2769 98.75,1253.3569 144.08,1217.8269 C169.04,1198.2569 196.487,1189.822 226.667,1185.632" fill="none" id="Admin-to-UC18" style="stroke:#181818;stroke-width:1;"/><polygon fill="#181818" points="232.61,1184.8069,223.1454,1182.0825,227.6575,1185.4944,224.2456,1190.0065,232.61,1184.8069" style="stroke:#181818;stroke-width:1;"/></g><!--link Admin to UC19--><g class="link" data-entity-1="ent0003" data-entity-2="ent0034" data-link-type="dependency" data-source-line="101" id="lnk70"><path d="M78.11,1359.6869 C93.42,1335.5869 116.16,1306.0969 144.08,1288.8269 C170.68,1272.3769 197.8938,1264.4951 227.4538,1259.8151" fill="none" id="Admin-to-UC19" style="stroke:#181818;stroke-width:1;"/><polygon fill="#181818" points="233.38,1258.8769,223.8652,1256.3335,228.4415,1259.6587,225.1162,1264.235,233.38,1258.8769" style="stroke:#181818;stroke-width:1;"/></g><!--link Admin to UC20--><g class="link" data-entity-1="ent0003" data-entity-2="ent0035" data-link-type="dependency" data-source-line="102" id="lnk71"><path d="M105.37,1374.9069 C117.79,1369.4269 131.26,1363.9969 144.08,1359.8269 C176.47,1349.2969 207.5841,1342.2197 238.3141,1336.4197" fill="none" id="Admin-to-UC20" style="stroke:#181818;stroke-width:1;"/><polygon fill="#181818" points="244.21,1335.3069,234.6243,1333.0455,239.2967,1336.2342,236.108,1340.9067,244.21,1335.3069" style="stroke:#181818;stroke-width:1;"/></g><!--link Admin to UC21--><g class="link" data-entity-1="ent0003" data-entity-2="ent0036" data-link-type="dependency" data-source-line="103" id="lnk72"><path d="M105.47,1398.8269 C136.78,1398.8269 172.39,1398.8269 209.81,1398.8269" fill="none" id="Admin-to-UC21" style="stroke:#181818;stroke-width:1;"/><polygon fill="#181818" points="215.81,1398.8269,206.81,1394.8269,210.81,1398.8269,206.81,1402.8269,215.81,1398.8269" style="stroke:#181818;stroke-width:1;"/></g><!--link Supervisor to UC1--><g class="link" data-entity-1="ent0004" data-entity-2="ent0007" data-link-type="dependency" data-source-line="106" id="lnk73"><path d="M58.46,2239.7369 C68.1,2045.7969 112.11,1194.5269 144.08,1148.8269 C169.65,1112.2669 211.7224,1094.704 249.2924,1084.954" fill="none" id="Supervisor-to-UC1" style="stroke:#181818;stroke-width:1;"/><polygon fill="#181818" points="255.1,1083.4469,245.3838,1081.8359,250.2603,1084.7028,247.3933,1089.5794,255.1,1083.4469" style="stroke:#181818;stroke-width:1;"/></g><!--link Supervisor to UC22--><g class="link" data-entity-1="ent0004" data-entity-2="ent0038" data-link-type="dependency" data-source-line="107" id="lnk74"><path d="M93.32,2300.7869 C108.33,2306.7069 124.79,2308.8169 136.08,2297.8269 C147.95,2286.2769 133.49,2012.5569 144.08,1999.8269 C165.3,1974.3269 194.1055,1965.109 226.2455,1962.139" fill="none" id="Supervisor-to-UC22" style="stroke:#181818;stroke-width:1;"/><polygon fill="#181818" points="232.22,1961.5869,222.8901,1958.432,227.2412,1962.047,223.6262,1966.3981,232.22,1961.5869" style="stroke:#181818;stroke-width:1;"/></g><!--link Supervisor to UC23--><g class="link" data-entity-1="ent0004" data-entity-2="ent0039" data-link-type="dependency" data-source-line="108" id="lnk75"><path d="M82.64,2317.9569 C97.64,2335.3569 117.2,2349.7269 136.08,2338.8269 C243.29,2276.9469 288.506,2126.1803 302.526,2067.9303" fill="none" id="Supervisor-to-UC23" style="stroke:#181818;stroke-width:1;"/><polygon fill="#181818" points="303.93,2062.0969,297.935,2069.911,302.76,2066.9581,305.7129,2071.783,303.93,2062.0969" style="stroke:#181818;stroke-width:1;"/></g><!--link Supervisor to UC24--><g class="link" data-entity-1="ent0004" data-entity-2="ent0040" data-link-type="dependency" data-source-line="109" id="lnk76"><path d="M93.31,2259.5969 C109.5,2249.0269 126.91,2234.2869 136.08,2215.8269 C145.18,2197.5169 131.08,1863.6169 144.08,1847.8269 C164.35,1823.1969 191.2595,1813.7039 222.3195,1810.1239" fill="none" id="Supervisor-to-UC24" style="stroke:#181818;stroke-width:1;"/><polygon fill="#181818" points="228.28,1809.4369,218.8812,1806.4937,223.3129,1810.0094,219.7972,1814.4411,228.28,1809.4369" style="stroke:#181818;stroke-width:1;"/></g><!--link Supervisor to UC25--><g class="link" data-entity-1="ent0004" data-entity-2="ent0041" data-link-type="dependency" data-source-line="110" id="lnk77"><path d="M93.12,2277.9769 C108.86,2275.5769 125.94,2269.8169 136.08,2256.8269 C158.51,2228.0869 121.2,1957.2069 144.08,1928.8269 C159.68,1909.4669 177.1055,1899.9773 201.2455,1894.0073" fill="none" id="Supervisor-to-UC25" style="stroke:#181818;stroke-width:1;"/><polygon fill="#181818" points="207.07,1892.5669,197.3729,1890.8445,202.2162,1893.7672,199.2935,1898.6106,207.07,1892.5669" style="stroke:#181818;stroke-width:1;"/></g><!--link UC12a to UC14--><g class="link" data-entity-1="ent0022" data-entity-2="ent0026" data-link-type="extension" data-source-line="113" id="lnk78"><path d="M727.53,1627.1469 C783.09,1638.2969 850.3617,1651.7959 909.5717,1663.6759" fill="none" id="UC12a-to-UC14" style="stroke:#181818;stroke-width:1;"/><polygon fill="none" points="927.22,1667.2169,910.7521,1657.7931,908.3914,1669.5587,927.22,1667.2169" style="stroke:#181818;stroke-width:1;"/><text fill="#000000" font-family="sans-serif" font-size="13" lengthAdjust="spacing" textLength="56.8877" x="818.73" y="1642.4438">extiende</text></g><!--link UC13 to UC14--><g class="link" data-entity-1="ent0025" data-entity-2="ent0026" data-link-type="extension" data-source-line="114" id="lnk79"><path d="M779.88,1688.7969 C821.05,1687.2769 849.4024,1686.2241 888.4924,1684.7741" fill="none" id="UC13-to-UC14" style="stroke:#181818;stroke-width:1;"/><polygon fill="none" points="906.48,1684.1069,888.27,1678.7782,888.7148,1690.77,906.48,1684.1069" style="stroke:#181818;stroke-width:1;"/><text fill="#000000" font-family="sans-serif" font-size="13" lengthAdjust="spacing" textLength="56.8877" x="818.73" y="1681.4638">extiende</text></g><!--link UC5 to GMN80--><g class="link" data-entity-1="ent0012" data-entity-2="ent0081" data-link-type="association" data-source-line="118" id="lnk82"><path d="M390.44,421.5269 C406.8,415.4769 423.3,407.7169 437.33,397.8269 C504.61,350.4469 500.99,317.0269 552.47,252.8269 C573,227.2269 595.69,199.1669 615.55,174.6669" fill="none" id="UC5-GMN80" style="stroke:#181818;stroke-width:1;stroke-dasharray:7,7;"/></g><!--link UC24 to GMN83--><g class="link" data-entity-1="ent0040" data-entity-2="ent0084" data-link-type="association" data-source-line="129" id="lnk85"><path d="M378.52,1822.2969 C398.7,1827.6569 420.02,1835.7169 437.33,1847.8269 C537.8,1918.1269 610.96,2046.2669 645.97,2117.1969" fill="none" id="UC24-GMN83" style="stroke:#181818;stroke-width:1;stroke-dasharray:7,7;"/></g><!--link UC15 to GMN86--><g class="link" data-entity-1="ent0030" data-entity-2="ent0087" data-link-type="association" data-source-line="138" id="lnk88"><path d="M245.68,1475.4569 C200.29,1474.6569 144.14,1464.1569 124.58,1420.3269 C111.56,1391.1569 111.56,299.4969 124.58,270.3269 C144.66,225.3269 190.67,194.5169 231.81,174.9269" fill="none" id="UC15-GMN86" style="stroke:#181818;stroke-width:1;stroke-dasharray:7,7;"/></g><?plantuml-src hLVDRXit4BxlKmoC096DojRgnvOCsu0YIucBm5Kjf7TgbruptYK5akiuINlga_JOGmz5tw1ziGvNf5QaraP_R426PkRZaFFD3odDT4xXaf5Cae90Ic52b53comSbe0sBWaWz4GLDXOoYdDvgq08ao-uqf4pIH3F18tNF-8gW2o295dAXFwDNyeagNBXbN97adcHqRJPh2Szo6aNL8jYRAbscZ71Dzu0eMA14kNRMSLempfIM18zI0IgDCo_A5PKFJ5bRBKRHPYT4eGEAWMw7jGTVemZWDPp_mxyAlE6fH9uoogaaELNGqY95VOuVAL2n_syzMuumtb9Zz2mX2Vlhvp__uEQOW7-beWbH2BZYB654me8gXy30FqnY7tP34yC50YU28tkA8lXtOi5T7_m3bJ2dyfRbrjxpxUD4boHdNqW0woFif__BOafpg6lWFnCtAtc2HOd7J4cAATakgwyXDrbLKSXDYMGJQ2M2m-9gyMPwlMz36mGCLNvjJYpK8OaFNPHBPbWlLb8ipVucq3d9XCKVxt8_pekIoY_8oILJAy7P4cl8mazy-0GFSelbOGe0Anr3XbRS7hXZ3tUTNmjjAiRv6_c8ANymrVHzIJ-IeqMPKKcHHrSdSIVONV1RbfM6kkvix43nIvM1r-mlLWd120cAuIrLPfWPGZV3OqD-73JAH58Fk845DV2EB5dED957L_pEVMzQjmmFmwkUVS_ulI7c2hEZwr5W5oN1H2XMGXh_TSdZH9e-9ZHtPH7tdWfwQut3zeFcpoJDFEG664GzJPbk1WPXNb9Liz80JtQgsDRyLXl5ZHqguP9eB2glG-EWvSQAPJRsGo0DQJbfpieDDKJNH0sV8ZLekNWKpX_Jv2crRUTWtSvkyxuNMTKXOwG8BpoiWzysC_p5scxhrdofdjlcD6YuDwLAcjBURRYKridqRmW7xpqrrDqqTS3-hjzt21MIaRpYLfddmTRKwmugPf7RrvZpd9Z8l1ibieyKQBSlgglNbxk1t0laVY0F8lp0sU5XTPl0APoTCPxa2Bcu2A37WNmIoCD07eL7xOIAE8ZIdy6Lj0bpM-fwKiz7TYFppuQ4qp68oJCkdpCcWT7R9TYqRvRstT9-mwQrSVcSyTbD1xvux8idlZZqnP7FOCSNmqnijMNzjIwvK8NziwlhDUZw3Rf1i3UsXNtTuglFtZ_HEfNjzezhkf4b-gWPnKbcJBrc2_h5SKXKn0K-XTO_8SIjVM4T7DpCUWS7fs2xLm2-n4xHq8PfGLWEhO8yGg-pNwckHR6KTAthMjruHNCSEiBNJl30lwPbZa-xupQMKse6PuOJLAtjSwBK9o5JQ0q1Xn7-cC1tZxLDY9GOk7KuiDl8v8uz27klG6j-EJlwTlvsFy8OmKGMxSHNpHqJO5n5ECr1rRGdvY4b2tE1ud1pWpXP_pG1_EyUmwXT2hr-TkxDp1AvXshdkczSBoXG_b3T3K0DRMWbfHO5gdx1cyWut-peaXaS73V11UkJnour8vkQd5J7upGJM1ycFw-wdKu79j_DuHnY87RYec7wyHHUnPrlZFaS1XkJgZVy6m00?></g></svg>